<svg xmlns="http://www.w3.org/2000/svg" xmlns:xlink="http://www.w3.org/1999/xlink" width="1080" zoomAndPan="magnify" viewBox="0 0 810 809.999993" height="1080" preserveAspectRatio="xMidYMid meet" version="1.0"><defs><g/><clipPath id="80568957fb"><path d="M 100.398438 192 L 709.398438 192 L 709.398438 436 L 100.398438 436 Z M 100.398438 192 " clip-rule="nonzero"/></clipPath></defs><g clip-path="url(#80568957fb)"><path fill="#d9d9d9" d="M 633.449219 431.109375 C 633.449219 431.109375 464.523438 435.679688 405 435.679688 C 350.296875 435.679688 176.546875 431.109375 176.546875 431.109375 C 175.300781 431.109375 174.058594 431.078125 172.8125 431.015625 C 171.566406 430.957031 170.324219 430.863281 169.085938 430.742188 C 167.84375 430.621094 166.609375 430.46875 165.375 430.285156 C 164.140625 430.101562 162.914062 429.890625 161.691406 429.644531 C 160.46875 429.402344 159.253906 429.128906 158.046875 428.828125 C 156.835938 428.523438 155.636719 428.191406 154.445312 427.828125 C 153.25 427.46875 152.066406 427.078125 150.894531 426.65625 C 149.722656 426.238281 148.558594 425.789062 147.40625 425.3125 C 146.257812 424.835938 145.117188 424.332031 143.992188 423.796875 C 142.863281 423.265625 141.75 422.703125 140.652344 422.117188 C 139.554688 421.53125 138.46875 420.914062 137.398438 420.273438 C 136.332031 419.632812 135.277344 418.96875 134.242188 418.273438 C 133.207031 417.582031 132.1875 416.867188 131.1875 416.125 C 130.183594 415.378906 129.203125 414.613281 128.238281 413.824219 C 127.277344 413.03125 126.332031 412.21875 125.410156 411.382812 C 124.484375 410.546875 123.582031 409.6875 122.703125 408.804688 C 121.820312 407.925781 120.960938 407.023438 120.125 406.097656 C 119.289062 405.175781 118.476562 404.230469 117.683594 403.269531 C 116.894531 402.304688 116.128906 401.324219 115.382812 400.320312 C 114.640625 399.320312 113.925781 398.300781 113.234375 397.265625 C 112.539062 396.230469 111.875 395.175781 111.234375 394.109375 C 110.59375 393.039062 109.976562 391.953125 109.390625 390.855469 C 108.804688 389.757812 108.242188 388.644531 107.710938 387.515625 C 107.175781 386.390625 106.671875 385.25 106.195312 384.101562 C 105.71875 382.949219 105.269531 381.785156 104.851562 380.613281 C 104.429688 379.441406 104.039062 378.257812 103.679688 377.0625 C 103.316406 375.871094 102.984375 374.671875 102.679688 373.460938 C 102.378906 372.253906 102.105469 371.039062 101.863281 369.816406 C 101.617188 368.59375 101.40625 367.367188 101.222656 366.132812 C 101.039062 364.898438 100.886719 363.664062 100.765625 362.421875 C 100.644531 361.183594 100.550781 359.941406 100.492188 358.695312 C 100.429688 357.449219 100.398438 356.207031 100.398438 354.960938 L 100.398438 274.238281 C 100.398438 272.992188 100.429688 271.75 100.492188 270.503906 C 100.550781 269.257812 100.644531 268.015625 100.765625 266.777344 C 100.886719 265.535156 101.039062 264.300781 101.222656 263.066406 C 101.40625 261.832031 101.617188 260.605469 101.863281 259.382812 C 102.105469 258.160156 102.378906 256.945312 102.679688 255.738281 C 102.984375 254.527344 103.316406 253.328125 103.679688 252.136719 C 104.039062 250.941406 104.429688 249.757812 104.851562 248.585938 C 105.269531 247.414062 105.71875 246.25 106.195312 245.097656 C 106.671875 243.949219 107.175781 242.808594 107.710938 241.683594 C 108.242188 240.554688 108.804688 239.441406 109.390625 238.34375 C 109.976562 237.246094 110.59375 236.160156 111.234375 235.089844 C 111.875 234.023438 112.539062 232.96875 113.234375 231.933594 C 113.925781 230.898438 114.640625 229.878906 115.382812 228.878906 C 116.128906 227.875 116.894531 226.894531 117.683594 225.929688 C 118.476562 224.96875 119.289062 224.023438 120.125 223.101562 C 120.960938 222.175781 121.820312 221.273438 122.703125 220.394531 C 123.582031 219.511719 124.484375 218.652344 125.410156 217.816406 C 126.332031 216.980469 127.277344 216.167969 128.238281 215.375 C 129.203125 214.585938 130.183594 213.816406 131.1875 213.074219 C 132.1875 212.332031 133.207031 211.617188 134.242188 210.921875 C 135.277344 210.230469 136.332031 209.566406 137.398438 208.925781 C 138.46875 208.285156 139.554688 207.667969 140.652344 207.082031 C 141.75 206.496094 142.863281 205.933594 143.992188 205.402344 C 145.117188 204.867188 146.257812 204.363281 147.40625 203.886719 C 148.558594 203.410156 149.722656 202.960938 150.894531 202.542969 C 152.066406 202.121094 153.25 201.730469 154.445312 201.371094 C 155.636719 201.007812 156.835938 200.675781 158.046875 200.371094 C 159.253906 200.070312 160.46875 199.796875 161.691406 199.554688 C 162.914062 199.308594 164.140625 199.097656 165.375 198.914062 C 166.609375 198.730469 167.84375 198.578125 169.085938 198.457031 C 170.324219 198.335938 171.566406 198.242188 172.8125 198.183594 C 174.058594 198.121094 175.300781 198.089844 176.546875 198.089844 C 176.546875 198.089844 373.652344 192 412.613281 192 C 487.875 192 633.449219 198.089844 633.449219 198.089844 C 634.695312 198.089844 635.941406 198.121094 637.183594 198.183594 C 638.429688 198.242188 639.671875 198.335938 640.914062 198.457031 C 642.152344 198.578125 643.390625 198.730469 644.621094 198.914062 C 645.855469 199.097656 647.082031 199.308594 648.304688 199.554688 C 649.527344 199.796875 650.742188 200.070312 651.949219 200.371094 C 653.160156 200.675781 654.359375 201.007812 655.554688 201.371094 C 656.746094 201.730469 657.929688 202.121094 659.101562 202.542969 C 660.277344 202.960938 661.4375 203.410156 662.589844 203.886719 C 663.742188 204.363281 664.878906 204.867188 666.007812 205.402344 C 667.132812 205.933594 668.246094 206.496094 669.34375 207.082031 C 670.445312 207.667969 671.527344 208.285156 672.597656 208.925781 C 673.664062 209.566406 674.71875 210.230469 675.753906 210.921875 C 676.792969 211.617188 677.808594 212.332031 678.8125 213.074219 C 679.8125 213.816406 680.792969 214.585938 681.757812 215.375 C 682.71875 216.167969 683.664062 216.980469 684.585938 217.816406 C 685.511719 218.652344 686.414062 219.511719 687.292969 220.394531 C 688.175781 221.273438 689.035156 222.175781 689.871094 223.101562 C 690.707031 224.023438 691.523438 224.96875 692.3125 225.929688 C 693.101562 226.894531 693.871094 227.875 694.613281 228.878906 C 695.355469 229.878906 696.070312 230.898438 696.765625 231.933594 C 697.457031 232.96875 698.125 234.023438 698.765625 235.089844 C 699.40625 236.160156 700.019531 237.246094 700.605469 238.34375 C 701.195312 239.441406 701.753906 240.554688 702.285156 241.683594 C 702.820312 242.808594 703.324219 243.949219 703.800781 245.097656 C 704.277344 246.25 704.726562 247.414062 705.148438 248.585938 C 705.566406 249.757812 705.957031 250.941406 706.320312 252.136719 C 706.679688 253.328125 707.011719 254.527344 707.316406 255.738281 C 707.617188 256.945312 707.890625 258.160156 708.136719 259.382812 C 708.378906 260.605469 708.589844 261.832031 708.773438 263.066406 C 708.957031 264.300781 709.109375 265.535156 709.230469 266.777344 C 709.355469 268.015625 709.445312 269.257812 709.507812 270.503906 C 709.566406 271.75 709.597656 272.992188 709.597656 274.238281 L 709.597656 354.960938 C 709.597656 356.207031 709.566406 357.449219 709.507812 358.695312 C 709.445312 359.941406 709.351562 361.183594 709.230469 362.421875 C 709.109375 363.664062 708.957031 364.898438 708.773438 366.132812 C 708.589844 367.367188 708.378906 368.59375 708.136719 369.816406 C 707.890625 371.039062 707.617188 372.253906 707.316406 373.460938 C 707.011719 374.671875 706.679688 375.871094 706.320312 377.0625 C 705.957031 378.257812 705.566406 379.441406 705.144531 380.613281 C 704.726562 381.785156 704.277344 382.949219 703.800781 384.101562 C 703.324219 385.25 702.820312 386.390625 702.285156 387.515625 C 701.753906 388.644531 701.195312 389.757812 700.605469 390.855469 C 700.019531 391.953125 699.40625 393.039062 698.765625 394.109375 C 698.125 395.175781 697.457031 396.230469 696.765625 397.265625 C 696.070312 398.300781 695.355469 399.320312 694.613281 400.320312 C 693.871094 401.324219 693.101562 402.304688 692.3125 403.269531 C 691.523438 404.230469 690.707031 405.175781 689.871094 406.097656 C 689.035156 407.023438 688.175781 407.925781 687.292969 408.804688 C 686.414062 409.6875 685.511719 410.546875 684.585938 411.382812 C 683.664062 412.21875 682.71875 413.03125 681.757812 413.824219 C 680.792969 414.613281 679.8125 415.378906 678.808594 416.125 C 677.808594 416.867188 676.789062 417.582031 675.753906 418.273438 C 674.71875 418.96875 673.664062 419.632812 672.597656 420.273438 C 671.527344 420.914062 670.445312 421.53125 669.34375 422.117188 C 668.246094 422.703125 667.132812 423.265625 666.007812 423.796875 C 664.878906 424.332031 663.742188 424.835938 662.589844 425.3125 C 661.4375 425.789062 660.277344 426.238281 659.101562 426.65625 C 657.929688 427.078125 656.746094 427.46875 655.554688 427.828125 C 654.359375 428.191406 653.160156 428.523438 651.949219 428.828125 C 650.742188 429.128906 649.527344 429.402344 648.304688 429.644531 C 647.082031 429.890625 645.855469 430.101562 644.621094 430.285156 C 643.390625 430.46875 642.152344 430.621094 640.914062 430.742188 C 639.671875 430.863281 638.429688 430.957031 637.183594 431.015625 C 635.941406 431.078125 634.695312 431.109375 633.449219 431.109375 Z M 633.449219 431.109375 " fill-opacity="1" fill-rule="nonzero"/></g><path fill="#d9d9d9" d="M 158.273438 365.621094 C 158.273438 365.621094 216.363281 460.386719 132.535156 520.050781 C 132.179688 520.304688 131.851562 520.585938 131.546875 520.894531 C 131.246094 521.203125 130.96875 521.535156 130.722656 521.894531 C 130.476562 522.25 130.265625 522.628906 130.085938 523.023438 C 129.90625 523.417969 129.761719 523.824219 129.652344 524.242188 C 129.542969 524.664062 129.472656 525.089844 129.4375 525.519531 C 129.402344 525.953125 129.40625 526.386719 129.449219 526.816406 C 129.492188 527.25 129.570312 527.675781 129.683594 528.09375 C 129.800781 528.511719 129.953125 528.914062 130.136719 529.304688 C 130.324219 529.699219 130.542969 530.070312 130.796875 530.421875 C 131.046875 530.777344 131.328125 531.105469 131.636719 531.410156 C 131.945312 531.714844 132.277344 531.988281 132.636719 532.234375 C 132.992188 532.480469 133.367188 532.695312 133.761719 532.875 C 134.15625 533.054688 134.566406 533.199219 134.984375 533.308594 C 135.40625 533.417969 135.832031 533.488281 136.261719 533.523438 C 136.695312 533.558594 137.128906 533.554688 137.558594 533.511719 C 137.992188 533.472656 138.414062 533.394531 138.832031 533.277344 C 203.277344 515.625 308.546875 471 327.324219 365.621094 Z M 158.273438 365.621094 " fill-opacity="1" fill-rule="nonzero"/><g fill="#000000" fill-opacity="1"><g transform="translate(186.15802, 356.865631)"><g><path d="M 13.625 -61.6875 C 15.007812 -65.570312 17.191406 -69.582031 20.171875 -73.71875 C 23.148438 -77.851562 26.632812 -81.320312 30.625 -84.125 C 34.613281 -86.9375 38.695312 -88.34375 42.875 -88.34375 C 46.957031 -88.34375 50.847656 -87.394531 54.546875 -85.5 C 58.242188 -83.601562 61.242188 -80.789062 63.546875 -77.0625 C 65.859375 -73.34375 67.015625 -68.910156 67.015625 -63.765625 C 67.015625 -62.421875 66.785156 -60.929688 66.328125 -59.296875 C 65.867188 -57.671875 65.160156 -56.269531 64.203125 -55.09375 C 63.242188 -53.914062 62.09375 -53.328125 60.75 -53.328125 C 59.644531 -53.328125 58.828125 -53.640625 58.296875 -54.265625 C 57.765625 -54.890625 57.414062 -55.679688 57.25 -56.640625 C 57.082031 -57.597656 56.925781 -58.941406 56.78125 -60.671875 C 56.59375 -63.554688 56.222656 -65.945312 55.671875 -67.84375 C 55.117188 -69.738281 53.851562 -71.367188 51.875 -72.734375 C 49.90625 -74.109375 46.929688 -74.796875 42.953125 -74.796875 C 37.523438 -74.796875 32.875 -72.273438 29 -67.234375 C 25.132812 -62.191406 22.21875 -56.34375 20.25 -49.6875 C 18.28125 -43.03125 17.296875 -37.539062 17.296875 -33.21875 C 17.296875 -28.988281 18.421875 -25.3125 20.671875 -22.1875 C 22.929688 -19.070312 25.851562 -16.695312 29.4375 -15.0625 C 33.019531 -13.425781 36.726562 -12.609375 40.5625 -12.609375 C 44.03125 -12.609375 47.851562 -12.882812 52.03125 -13.4375 C 56.207031 -13.988281 59.59375 -14.84375 62.1875 -16 C 63.914062 -17.632812 65.195312 -18.773438 66.03125 -19.421875 C 66.875 -20.066406 67.488281 -20.390625 67.875 -20.390625 C 69.414062 -20.390625 70.65625 -19.703125 71.59375 -18.328125 C 72.53125 -16.960938 73 -15.25 73 -13.1875 C 73 -9.820312 71.328125 -7.070312 67.984375 -4.9375 C 64.648438 -2.800781 60.59375 -1.273438 55.8125 -0.359375 C 51.03125 0.554688 46.359375 1.015625 41.796875 1.015625 C 31.992188 1.015625 23.835938 -1.484375 17.328125 -6.484375 C 10.816406 -11.484375 7.5625 -20.320312 7.5625 -33 C 7.5625 -37.519531 8.085938 -42.035156 9.140625 -46.546875 C 10.203125 -51.066406 11.695312 -56.113281 13.625 -61.6875 Z M 13.625 -61.6875 "/></g></g></g><g fill="#000000" fill-opacity="1"><g transform="translate(263.686483, 356.865631)"><g><path d="M 31.203125 -16.421875 C 32.492188 -16.421875 33.488281 -15.75 34.1875 -14.40625 C 34.882812 -13.0625 35.234375 -11.476562 35.234375 -9.65625 C 35.234375 -7.78125 34.664062 -6.070312 33.53125 -4.53125 C 32.40625 -3 31.023438 -1.800781 29.390625 -0.9375 C 27.765625 -0.0703125 26.300781 0.359375 25 0.359375 C 20.289062 0.359375 16.851562 -1.148438 14.6875 -4.171875 C 12.53125 -7.203125 11.476562 -11.648438 11.53125 -17.515625 L 12.46875 -96.5625 C 12.46875 -99.726562 12.898438 -102.285156 13.765625 -104.234375 C 14.628906 -106.179688 15.972656 -107.15625 17.796875 -107.15625 C 18.992188 -107.15625 19.988281 -106.445312 20.78125 -105.03125 C 21.582031 -103.613281 21.984375 -102.085938 21.984375 -100.453125 L 21.046875 -31.203125 L 21.046875 -28.75 C 21.046875 -24.238281 21.367188 -20.492188 22.015625 -17.515625 C 22.660156 -14.535156 23.707031 -13.046875 25.15625 -13.046875 C 25.769531 -13.046875 26.289062 -13.1875 26.71875 -13.46875 C 27.15625 -13.757812 27.664062 -14.191406 28.25 -14.765625 C 28.820312 -15.347656 29.3125 -15.769531 29.71875 -16.03125 C 30.132812 -16.289062 30.628906 -16.421875 31.203125 -16.421875 Z M 31.203125 -16.421875 "/></g></g></g><g fill="#000000" fill-opacity="1"><g transform="translate(301.009664, 356.865631)"><g><path d="M 25.15625 -93.609375 C 25.15625 -87.597656 22.921875 -84.59375 18.453125 -84.59375 C 16.484375 -84.59375 14.644531 -85.171875 12.9375 -86.328125 C 11.226562 -87.484375 10.375 -89.5 10.375 -92.375 C 10.375 -93.820312 10.769531 -95.289062 11.5625 -96.78125 C 12.351562 -98.269531 13.335938 -99.492188 14.515625 -100.453125 C 15.691406 -101.410156 16.8125 -101.890625 17.875 -101.890625 C 19.84375 -101.890625 21.546875 -101.265625 22.984375 -100.015625 C 24.429688 -98.765625 25.15625 -96.628906 25.15625 -93.609375 Z M 21.109375 -6.125 C 21.109375 -3.71875 20.601562 -1.816406 19.59375 -0.421875 C 18.59375 0.960938 17.46875 1.65625 16.21875 1.65625 C 14.4375 1.65625 13.03125 1.09375 12 -0.03125 C 10.96875 -1.164062 10.1875 -3.050781 9.65625 -5.6875 C 9.269531 -8 9.078125 -12.925781 9.078125 -20.46875 C 9.078125 -32.957031 9.566406 -44.28125 10.546875 -54.4375 C 11.535156 -64.601562 13.785156 -69.6875 17.296875 -69.6875 C 18.734375 -69.6875 19.679688 -69.046875 20.140625 -67.765625 C 20.597656 -66.492188 20.828125 -64.660156 20.828125 -62.265625 L 20.25 -52.171875 C 20.007812 -48.765625 19.789062 -45.1875 19.59375 -41.4375 C 19.40625 -37.6875 19.3125 -34.347656 19.3125 -31.421875 C 19.3125 -28.296875 19.625 -23.921875 20.25 -18.296875 C 20.820312 -12.441406 21.109375 -8.382812 21.109375 -6.125 Z M 21.109375 -6.125 "/></g></g></g><g fill="#000000" fill-opacity="1"><g transform="translate(329.758602, 356.865631)"><g><path d="M 51.515625 -16.21875 C 52.140625 -16.21875 52.882812 -15.925781 53.75 -15.34375 C 54.613281 -14.769531 55.382812 -13.832031 56.0625 -12.53125 C 56.738281 -11.238281 57.078125 -9.582031 57.078125 -7.5625 C 57.078125 -6.507812 56.738281 -5.367188 56.0625 -4.140625 C 55.382812 -2.921875 54.578125 -1.898438 53.640625 -1.078125 C 52.710938 -0.265625 51.882812 0.140625 51.15625 0.140625 L 46.90625 0.140625 C 45.269531 0.140625 42.914062 0.238281 39.84375 0.4375 C 36.769531 0.625 34.394531 0.71875 32.71875 0.71875 C 24.351562 0.71875 17.695312 -1.320312 12.75 -5.40625 C 7.800781 -9.488281 5.328125 -16.429688 5.328125 -26.234375 C 5.328125 -34.109375 6.613281 -41.300781 9.1875 -47.8125 C 11.757812 -54.320312 15.519531 -59.484375 20.46875 -63.296875 C 25.414062 -67.117188 31.273438 -69.03125 38.046875 -69.03125 C 41.410156 -69.03125 44.519531 -68.203125 47.375 -66.546875 C 50.238281 -64.890625 52.519531 -62.609375 54.21875 -59.703125 C 55.925781 -56.796875 56.78125 -53.566406 56.78125 -50.015625 C 56.78125 -48.328125 56.515625 -46.609375 55.984375 -44.859375 C 55.460938 -43.109375 54.648438 -42.234375 53.546875 -42.234375 C 52.722656 -42.234375 52.007812 -42.539062 51.40625 -43.15625 C 50.8125 -43.78125 50.082031 -44.769531 49.21875 -46.125 C 48.15625 -47.75 47.128906 -49.125 46.140625 -50.25 C 45.160156 -51.382812 43.804688 -52.359375 42.078125 -53.171875 C 40.347656 -53.992188 38.210938 -54.40625 35.671875 -54.40625 C 31.734375 -54.40625 28.175781 -53.265625 25 -50.984375 C 21.832031 -48.703125 19.367188 -45.722656 17.609375 -42.046875 C 15.859375 -38.367188 14.984375 -34.515625 14.984375 -30.484375 C 14.984375 -25.773438 15.875 -22.171875 17.65625 -19.671875 C 19.4375 -17.171875 22.140625 -15.441406 25.765625 -14.484375 C 29.390625 -13.523438 34.320312 -13.046875 40.5625 -13.046875 C 41.914062 -13.046875 43.070312 -13.175781 44.03125 -13.4375 C 44.988281 -13.695312 46.09375 -14.117188 47.34375 -14.703125 C 48.925781 -15.472656 50.316406 -15.976562 51.515625 -16.21875 Z M 51.515625 -16.21875 "/></g></g></g><g fill="#000000" fill-opacity="1"><g transform="translate(392.804517, 356.865631)"><g><path d="M 12.609375 -99.078125 C 12.660156 -100.421875 12.960938 -101.644531 13.515625 -102.75 C 14.066406 -103.863281 14.757812 -104.726562 15.59375 -105.34375 C 16.4375 -105.96875 17.242188 -106.28125 18.015625 -106.28125 C 18.640625 -106.28125 19.332031 -105.976562 20.09375 -105.375 C 20.863281 -104.78125 21.515625 -103.914062 22.046875 -102.78125 C 22.578125 -101.65625 22.84375 -100.347656 22.84375 -98.859375 C 22.84375 -91.179688 22.4375 -80.804688 21.625 -67.734375 C 21.1875 -60.671875 20.859375 -54.640625 20.640625 -49.640625 C 20.429688 -44.648438 20.328125 -39.535156 20.328125 -34.296875 L 20.328125 -33.296875 L 48.359375 -69.890625 C 49.078125 -71.003906 49.878906 -71.921875 50.765625 -72.640625 C 51.648438 -73.359375 52.503906 -73.71875 53.328125 -73.71875 C 55.335938 -73.71875 56.726562 -73.203125 57.5 -72.171875 C 58.269531 -71.140625 58.65625 -69.46875 58.65625 -67.15625 L 58.65625 -66.4375 C 58.65625 -64.5625 57.523438 -62.375 55.265625 -59.875 C 53.015625 -57.382812 49.773438 -54.21875 45.546875 -50.375 L 41.796875 -46.90625 C 42.460938 -45.375 43.15625 -43.632812 43.875 -41.6875 C 44.601562 -39.738281 45.085938 -38.429688 45.328125 -37.765625 C 46.859375 -33.335938 48.273438 -29.707031 49.578125 -26.875 C 50.734375 -24.1875 51.9375 -21.757812 53.1875 -19.59375 C 54.238281 -17.863281 55.316406 -15.753906 56.421875 -13.265625 C 56.515625 -13.023438 56.738281 -12.445312 57.09375 -11.53125 C 57.457031 -10.613281 57.804688 -9.625 58.140625 -8.5625 C 58.484375 -7.507812 58.65625 -6.695312 58.65625 -6.125 C 58.65625 -3.820312 58.003906 -1.875 56.703125 -0.28125 C 55.410156 1.300781 53.898438 2.09375 52.171875 2.09375 C 51.066406 2.09375 50.140625 1.632812 49.390625 0.71875 C 48.648438 -0.195312 48.039062 -1.613281 47.5625 -3.53125 C 47.5625 -3.34375 46.609375 -5.625 44.703125 -10.375 C 42.804688 -15.132812 39.265625 -24.453125 34.078125 -38.328125 L 20.328125 -21.6875 C 20.328125 -18.707031 20.347656 -16.398438 20.390625 -14.765625 L 20.46875 -7.0625 C 20.46875 -5.132812 19.925781 -3.304688 18.84375 -1.578125 C 17.757812 0.148438 16.398438 1.015625 14.765625 1.015625 C 13.523438 1.015625 12.492188 0.582031 11.671875 -0.28125 C 10.859375 -1.144531 10.257812 -2.164062 9.875 -3.34375 C 9.488281 -4.519531 9.296875 -5.59375 9.296875 -6.5625 L 9.375 -12.609375 C 9.414062 -15.109375 9.65625 -17.988281 10.09375 -21.25 C 10.332031 -22.789062 10.472656 -24.332031 10.515625 -25.875 Z M 12.609375 -99.078125 "/></g></g></g><g fill="#000000" fill-opacity="1"><g transform="translate(457.21943, 356.865631)"><g/></g></g><g fill="#000000" fill-opacity="1"><g transform="translate(486.977101, 356.865631)"><g><path d="M 89.203125 -35.453125 C 89.203125 -38.140625 88.53125 -40.835938 87.1875 -43.546875 C 85.84375 -46.265625 83.894531 -48.5 81.34375 -50.25 C 78.800781 -52.007812 75.828125 -52.890625 72.421875 -52.890625 C 70.640625 -52.890625 68.617188 -52.421875 66.359375 -51.484375 C 64.109375 -50.546875 62.019531 -49.234375 60.09375 -47.546875 C 58.175781 -45.867188 56.804688 -44 55.984375 -41.9375 L 55.265625 -12.609375 L 55.5625 -10.453125 L 55.84375 -8.21875 C 55.84375 -5.8125 55.382812 -3.742188 54.46875 -2.015625 C 53.5625 -0.285156 52.4375 0.578125 51.09375 0.578125 C 48.976562 0.578125 47.257812 0.0234375 45.9375 -1.078125 C 44.613281 -2.179688 43.953125 -4.25 43.953125 -7.28125 L 44.171875 -8.796875 C 44.554688 -12.109375 44.75 -14.050781 44.75 -14.625 L 45.03125 -36.171875 C 45.082031 -39.003906 44.554688 -41.847656 43.453125 -44.703125 C 42.347656 -47.566406 40.773438 -49.921875 38.734375 -51.765625 C 36.691406 -53.617188 34.375 -54.546875 31.78125 -54.546875 C 28.226562 -54.546875 25.441406 -54.085938 23.421875 -53.171875 C 21.398438 -52.265625 19.96875 -50.828125 19.125 -48.859375 C 18.289062 -46.890625 17.875 -44.222656 17.875 -40.859375 L 17.875 -38.046875 C 17.875 -35.398438 18.015625 -31.535156 18.296875 -26.453125 C 18.296875 -25.585938 18.347656 -24.429688 18.453125 -22.984375 L 19.75 -6.40625 C 19.75 -5.019531 19.410156 -3.773438 18.734375 -2.671875 C 18.066406 -1.566406 17.285156 -0.703125 16.390625 -0.078125 C 15.503906 0.546875 14.796875 0.859375 14.265625 0.859375 C 12.148438 0.859375 10.585938 0.164062 9.578125 -1.21875 C 8.578125 -2.613281 8.078125 -5.1875 8.078125 -8.9375 L 8.078125 -9.65625 L 8.140625 -11.390625 C 8.191406 -11.722656 8.21875 -12.273438 8.21875 -13.046875 L 8.140625 -24.640625 C 8.097656 -26.367188 8.078125 -28.628906 8.078125 -31.421875 L 8.078125 -42.953125 C 8.078125 -48.710938 8.179688 -53.222656 8.390625 -56.484375 C 8.609375 -59.753906 9.078125 -62.28125 9.796875 -64.0625 C 10.515625 -65.84375 11.597656 -66.734375 13.046875 -66.734375 C 15.878906 -66.734375 17.296875 -64.1875 17.296875 -59.09375 L 17.296875 -57.796875 C 17.960938 -59.617188 19.066406 -61.332031 20.609375 -62.9375 C 22.148438 -64.550781 23.914062 -65.863281 25.90625 -66.875 C 27.894531 -67.882812 29.898438 -68.390625 31.921875 -68.390625 C 34.460938 -68.390625 37.316406 -67.738281 40.484375 -66.4375 C 43.660156 -65.144531 46.398438 -63.113281 48.703125 -60.34375 C 51.015625 -57.582031 52.171875 -54.140625 52.171875 -50.015625 C 52.847656 -53.273438 54.347656 -56.140625 56.671875 -58.609375 C 59.003906 -61.085938 61.679688 -62.988281 64.703125 -64.3125 C 67.734375 -65.632812 70.5 -66.296875 73 -66.296875 C 81.40625 -66.296875 87.925781 -63.28125 92.5625 -57.25 C 97.195312 -51.21875 99.515625 -41.882812 99.515625 -29.25 C 99.515625 -20.65625 98.960938 -13.351562 97.859375 -7.34375 C 96.753906 -1.34375 95.070312 1.65625 92.8125 1.65625 C 91.613281 1.65625 90.492188 1.1875 89.453125 0.25 C 88.421875 -0.6875 87.59375 -1.847656 86.96875 -3.234375 C 86.351562 -4.628906 86.046875 -5.929688 86.046875 -7.140625 C 86.046875 -8.765625 86.175781 -10.191406 86.4375 -11.421875 C 86.695312 -12.648438 87.066406 -14.007812 87.546875 -15.5 C 88.078125 -17.082031 88.472656 -18.5 88.734375 -19.75 C 89.003906 -21 89.140625 -22.507812 89.140625 -24.28125 Z M 89.203125 -35.453125 "/></g></g></g><g fill="#000000" fill-opacity="1"><g transform="translate(594.767604, 356.865631)"><g><path d="M 57.640625 -16.5 C 59.421875 -16.5 60.753906 -15.945312 61.640625 -14.84375 C 62.535156 -13.738281 62.984375 -12.007812 62.984375 -9.65625 C 62.984375 -5.132812 59.726562 -2.15625 53.21875 -0.71875 C 46.707031 0.71875 40.28125 1.4375 33.9375 1.4375 C 29.1875 1.4375 24.597656 0.0546875 20.171875 -2.703125 C 15.753906 -5.460938 12.175781 -9.21875 9.4375 -13.96875 C 6.695312 -18.726562 5.328125 -23.941406 5.328125 -29.609375 C 5.328125 -37.734375 6.648438 -44.914062 9.296875 -51.15625 C 11.941406 -57.40625 15.796875 -62.269531 20.859375 -65.75 C 25.929688 -69.238281 31.945312 -70.984375 38.90625 -70.984375 C 42.601562 -70.984375 46.265625 -70.066406 49.890625 -68.234375 C 53.523438 -66.410156 56.519531 -63.742188 58.875 -60.234375 C 61.226562 -56.734375 62.40625 -52.601562 62.40625 -47.84375 C 62.40625 -45.394531 62.039062 -43.34375 61.3125 -41.6875 C 60.59375 -40.03125 59.613281 -38.984375 58.375 -38.546875 L 14.765625 -22.984375 C 16.253906 -18.234375 19.28125 -15.132812 23.84375 -13.6875 C 28.414062 -12.25 33.488281 -11.53125 39.0625 -11.53125 C 40.882812 -11.53125 42.707031 -11.789062 44.53125 -12.3125 C 46.351562 -12.84375 48.515625 -13.59375 51.015625 -14.5625 C 52.597656 -15.1875 53.90625 -15.664062 54.9375 -16 C 55.976562 -16.332031 56.878906 -16.5 57.640625 -16.5 Z M 14.046875 -33.9375 C 17.648438 -34.945312 21.757812 -36.363281 26.375 -38.1875 C 30.988281 -40.019531 36.894531 -42.421875 44.09375 -45.390625 C 48.945312 -47.410156 52.265625 -48.757812 54.046875 -49.4375 C 52.742188 -52.21875 50.554688 -54.253906 47.484375 -55.546875 C 44.410156 -56.847656 40.859375 -57.5 36.828125 -57.5 C 34.566406 -57.5 31.773438 -56.644531 28.453125 -54.9375 C 25.140625 -53.238281 22.085938 -50.609375 19.296875 -47.046875 C 16.515625 -43.492188 14.765625 -39.125 14.046875 -33.9375 Z M 14.046875 -33.9375 "/></g></g></g></svg>